<svg width="24" height="24" viewBox="0 0 24 24" fill="none" xmlns="http://www.w3.org/2000/svg">
<g clip-path="url(#clip0_1_1156)">
<path d="M11.1096 0.0281296C11.0205 0.0375042 10.7439 0.0703163 10.5002 0.0984421C6.79237 0.520317 3.36581 2.84532 1.48143 6.21563C0.797056 7.44375 0.300181 8.96719 0.0892434 10.5C-0.00450657 11.1703 0.00486844 12.9703 0.107993 13.6406C0.529868 16.3875 1.65956 18.6328 3.56737 20.5172C3.86268 20.8078 4.29393 21.1969 4.52362 21.3844C7.52831 23.7844 11.5267 24.5906 15.258 23.5453C19.6127 22.3266 22.9736 18.6563 23.7846 14.2313C24.5158 10.2703 23.3017 6.34688 20.4799 3.52032C18.6096 1.65469 16.3596 0.525005 13.6877 0.117191C13.2189 0.0468788 11.4752 -0.0140572 11.1096 0.0281296ZM12.9611 1.45313C16.6408 1.79063 19.8986 4.04532 21.5158 7.37813C22.0127 8.39532 22.2939 9.29532 22.4814 10.4766C22.5986 11.1984 22.5986 12.8016 22.4814 13.5469C22.2002 15.3469 21.5111 16.9641 20.4096 18.4219C20.0721 18.8625 19.2892 19.7344 19.2236 19.7344C19.2049 19.7344 19.1392 19.5797 19.083 19.3922C18.5205 17.6391 17.1096 16.0031 15.4174 15.1453L14.8736 14.8688L15.2486 14.5688C16.1252 13.8797 16.7674 12.8813 17.0674 11.7422C17.1658 11.3719 17.1799 11.2172 17.1799 10.4766C17.1799 9.70313 17.1658 9.59532 17.0486 9.16875C16.5752 7.4625 15.3658 6.15938 13.7017 5.56407C12.6892 5.19844 11.3111 5.19844 10.2986 5.56407C8.63456 6.15938 7.42518 7.4625 6.95174 9.16875C6.83456 9.59532 6.82049 9.70313 6.82049 10.4766C6.82049 11.2172 6.83456 11.3719 6.93299 11.7422C7.23299 12.8813 7.87518 13.8797 8.75174 14.5688L9.12674 14.8688L8.58299 15.1453C6.89549 16.0031 5.46581 17.6578 4.91737 19.3969C4.85643 19.5797 4.79549 19.7344 4.77674 19.7344C4.72518 19.7344 4.05018 19.0031 3.73612 18.6094C2.46581 17.0203 1.65018 15.0234 1.45799 13.0125C1.12518 9.6 2.53612 6.13125 5.15643 3.92344C7.33143 2.09532 10.1674 1.19532 12.9611 1.45313ZM12.9142 6.80157C14.1939 7.11094 15.1971 8.05313 15.6377 9.35157C15.8158 9.88594 15.8486 10.7672 15.7127 11.3484C15.5299 12.1125 15.183 12.7078 14.6064 13.2516C14.1799 13.6594 13.7533 13.9172 13.1721 14.1188C12.7455 14.2641 12.6986 14.2734 12.0002 14.2734C11.3017 14.2734 11.2549 14.2641 10.8283 14.1188C10.2471 13.9172 9.82049 13.6594 9.39393 13.2516C8.81737 12.7078 8.47049 12.1125 8.28768 11.3484C8.16112 10.8094 8.18456 9.89532 8.34393 9.39844C8.95799 7.44375 10.9361 6.31875 12.9142 6.80157ZM13.2236 15.8438C15.0096 16.2094 16.5424 17.3625 17.3814 18.9797C17.6392 19.4719 17.883 20.1609 17.9346 20.5219L17.9627 20.7516L17.6205 20.9719C17.1424 21.2813 16.0549 21.8063 15.4877 21.9984C14.8924 22.2047 14.1846 22.3781 13.5236 22.4859C12.7971 22.5984 11.1846 22.5984 10.4767 22.4813C8.99081 22.2422 7.65018 21.7547 6.47362 21.0234L6.03768 20.7516L6.06112 20.5359C6.09393 20.2453 6.34706 19.5047 6.54862 19.1016C7.13456 17.9297 8.13768 16.9313 9.31893 16.3359C9.90487 16.0453 10.7392 15.8109 11.4611 15.7313C11.8314 15.6938 12.7642 15.75 13.2236 15.8438Z" fill="#757575"/>
</g>
<defs>
<clipPath id="clip0_1_1156">
<rect width="24" height="24" fill="white"/>
</clipPath>
</defs>
</svg>
