<svg width="24" height="24" viewBox="0 0 24 24" fill="none" xmlns="http://www.w3.org/2000/svg">
<g clip-path="url(#clip0_1_536)">
<path d="M11.1093 0.0281296C11.0203 0.0375042 10.7437 0.0703163 10.4999 0.0984421C6.79212 0.520317 3.36556 2.84532 1.48119 6.21563C0.796812 7.44375 0.299937 8.96719 0.0889993 10.5C-0.00475071 11.1703 0.0046243 12.9703 0.107749 13.6406C0.529624 16.3875 1.65931 18.6328 3.56712 20.5172C3.86244 20.8078 4.29369 21.1969 4.52337 21.3844C7.52806 23.7844 11.5265 24.5906 15.2578 23.5453C19.6124 22.3266 22.9734 18.6563 23.7843 14.2313C24.5156 10.2703 23.3015 6.34688 20.4796 3.52032C18.6093 1.65469 16.3593 0.525005 13.6874 0.117191C13.2187 0.0468788 11.4749 -0.0140572 11.1093 0.0281296ZM12.9609 1.45313C16.6406 1.79063 19.8984 4.04532 21.5156 7.37813C22.0124 8.39532 22.2937 9.29532 22.4812 10.4766C22.5984 11.1984 22.5984 12.8016 22.4812 13.5469C22.1999 15.3469 21.5109 16.9641 20.4093 18.4219C20.0718 18.8625 19.289 19.7344 19.2234 19.7344C19.2046 19.7344 19.139 19.5797 19.0828 19.3922C18.5203 17.6391 17.1093 16.0031 15.4171 15.1453L14.8734 14.8688L15.2484 14.5688C16.1249 13.8797 16.7671 12.8813 17.0671 11.7422C17.1656 11.3719 17.1796 11.2172 17.1796 10.4766C17.1796 9.70313 17.1656 9.59532 17.0484 9.16875C16.5749 7.4625 15.3656 6.15938 13.7015 5.56407C12.689 5.19844 11.3109 5.19844 10.2984 5.56407C8.63431 6.15938 7.42494 7.4625 6.9515 9.16875C6.83431 9.59532 6.82025 9.70313 6.82025 10.4766C6.82025 11.2172 6.83431 11.3719 6.93275 11.7422C7.23275 12.8813 7.87494 13.8797 8.7515 14.5688L9.1265 14.8688L8.58275 15.1453C6.89525 16.0031 5.46556 17.6578 4.91712 19.3969C4.85619 19.5797 4.79525 19.7344 4.7765 19.7344C4.72494 19.7344 4.04994 19.0031 3.73587 18.6094C2.46556 17.0203 1.64994 15.0234 1.45775 13.0125C1.12494 9.6 2.53587 6.13125 5.15619 3.92344C7.33119 2.09532 10.1671 1.19532 12.9609 1.45313ZM12.914 6.80157C14.1937 7.11094 15.1968 8.05313 15.6374 9.35157C15.8156 9.88594 15.8484 10.7672 15.7124 11.3484C15.5296 12.1125 15.1827 12.7078 14.6062 13.2516C14.1796 13.6594 13.7531 13.9172 13.1718 14.1188C12.7452 14.2641 12.6984 14.2734 11.9999 14.2734C11.3015 14.2734 11.2546 14.2641 10.8281 14.1188C10.2468 13.9172 9.82025 13.6594 9.39369 13.2516C8.81713 12.7078 8.47025 12.1125 8.28744 11.3484C8.16088 10.8094 8.18431 9.89532 8.34369 9.39844C8.95775 7.44375 10.9359 6.31875 12.914 6.80157ZM13.2234 15.8438C15.0093 16.2094 16.5421 17.3625 17.3812 18.9797C17.639 19.4719 17.8827 20.1609 17.9343 20.5219L17.9624 20.7516L17.6203 20.9719C17.1421 21.2813 16.0546 21.8063 15.4874 21.9984C14.8921 22.2047 14.1843 22.3781 13.5234 22.4859C12.7968 22.5984 11.1843 22.5984 10.4765 22.4813C8.99056 22.2422 7.64994 21.7547 6.47337 21.0234L6.03744 20.7516L6.06087 20.5359C6.09369 20.2453 6.34681 19.5047 6.54837 19.1016C7.13431 17.9297 8.13744 16.9313 9.31869 16.3359C9.90462 16.0453 10.739 15.8109 11.4609 15.7313C11.8312 15.6938 12.764 15.75 13.2234 15.8438Z" fill="#757575"/>
</g>
<defs>
<clipPath id="clip0_1_536">
<rect width="24" height="24" fill="white"/>
</clipPath>
</defs>
</svg>
